<svg xmlns="http://www.w3.org/2000/svg" xmlns:xlink="http://www.w3.org/1999/xlink" width="1440" height="1090" viewBox="0 0 1440 1090" enable-background="new"><defs><linearGradient id="n"><stop offset="0" stop-color="#ba984c"/><stop offset=".496" stop-color="#b9a066" stop-opacity=".502"/><stop offset="1" stop-color="#4f4223"/></linearGradient><linearGradient id="o"><stop offset="0" stop-color="#ba994c" stop-opacity=".401"/><stop offset="1" stop-color="#292314"/></linearGradient><linearGradient id="m"><stop offset="0" stop-color="#342e1d" stop-opacity=".798"/><stop offset="1" stop-color="#0e0e0e" stop-opacity=".846"/></linearGradient><linearGradient id="l"><stop offset="0" stop-color="#ba984c"/><stop offset=".496" stop-color="#b9a066" stop-opacity=".502"/><stop offset="1" stop-color="#bd9c4b" stop-opacity=".929"/></linearGradient><linearGradient id="k"><stop offset="0" stop-color="#432c17" stop-opacity=".894"/><stop offset="1" stop-color="#2f231c" stop-opacity=".894"/></linearGradient><linearGradient id="g"><stop offset="0" stop-color="#fff"/><stop offset=".6" stop-color="#fff"/><stop offset="1" stop-color="#b6abab"/></linearGradient><linearGradient id="j"><stop offset="0" stop-color="#885832" stop-opacity="0"/><stop offset="1" stop-color="#885832"/></linearGradient><linearGradient id="f"><stop offset="0" stop-color="#c49761" stop-opacity=".984"/><stop offset="1" stop-color="#8e5e36"/></linearGradient><linearGradient id="d"><stop offset="0" stop-color="#482d1a"/><stop offset="1" stop-color="#543416"/></linearGradient><linearGradient id="c"><stop offset="0" stop-color="#312217"/><stop offset="1" stop-color="#482f11"/></linearGradient><linearGradient id="a"><stop offset="0" stop-color="#482f11"/><stop offset="1" stop-color="#312217"/></linearGradient><linearGradient id="e"><stop offset="0" stop-color="#ffed8d"/><stop offset="1" stop-color="#4f4223"/></linearGradient><linearGradient id="h"><stop offset="0" stop-color="#351212"/><stop offset=".76" stop-color="#322415"/><stop offset="1"/></linearGradient><linearGradient id="b"><stop offset="0" stop-color="#543416"/><stop offset="1" stop-color="#482d1a"/></linearGradient><linearGradient id="i"><stop offset="0" stop-color="#fff"/><stop offset="1" stop-color="#fff" stop-opacity="0"/></linearGradient><radialGradient xlink:href="#a" id="U" cx="787.279" cy="398.121" fx="787.279" fy="398.121" r="131.346" gradientTransform="matrix(.08685 .12227 -.75945 .53945 1055.186 54.202)" gradientUnits="userSpaceOnUse"/><radialGradient xlink:href="#b" id="V" cx="787.279" cy="398.121" fx="787.279" fy="398.121" r="131.346" gradientTransform="matrix(.08685 .12227 -.75945 .53945 1055.185 54.202)" gradientUnits="userSpaceOnUse"/><radialGradient xlink:href="#c" id="X" cx="811.671" cy="479.736" fx="811.671" fy="479.736" r="131.346" gradientTransform="matrix(-1.34717 -.52769 -.1609 .41079 1781.59 636.05)" gradientUnits="userSpaceOnUse"/><radialGradient xlink:href="#d" id="Y" cx="801.038" cy="479.736" fx="801.038" fy="479.736" r="131.346" gradientTransform="matrix(-2.60456 -1.0202 -.1609 .41079 2774.48 1024.966)" gradientUnits="userSpaceOnUse"/><linearGradient xlink:href="#e" id="p" x1="271.375" y1="864.434" x2="1228.694" y2="864.434" gradientUnits="userSpaceOnUse" gradientTransform="translate(-40)"/><linearGradient xlink:href="#a" id="J" x1="272.118" y1="341.186" x2="1267.281" y2="341.186" gradientUnits="userSpaceOnUse" gradientTransform="translate(-60)"/><linearGradient xlink:href="#f" id="z" x1="618.824" y1="542.736" x2="1119.911" y2="542.736" gradientUnits="userSpaceOnUse"/><radialGradient xlink:href="#g" id="ab" cx="887.357" cy="460.26" fx="887.357" fy="460.26" r="76.699" gradientTransform="matrix(.86072 0 0 .5348 125.173 213.731)" gradientUnits="userSpaceOnUse"/><filter id="ac" x="-.016" width="1.032" y="-.046" height="1.093" color-interpolation-filters="sRGB"><feGaussianBlur stdDeviation="1.027"/></filter><radialGradient xlink:href="#h" id="ad" cx="888.206" cy="454.905" fx="888.206" fy="454.905" r="36.893" gradientUnits="userSpaceOnUse"/><filter id="ae" x="-.032" width="1.065" y="-.032" height="1.065" color-interpolation-filters="sRGB"><feGaussianBlur stdDeviation=".936"/></filter><filter id="af" x="-.089" width="1.178" y="-.089" height="1.178" color-interpolation-filters="sRGB"><feGaussianBlur stdDeviation=".796"/></filter><radialGradient xlink:href="#i" id="ag" cx="887.705" cy="449.515" fx="887.705" fy="449.515" r="4.845" gradientTransform="matrix(2.88194 0 0 2.2127 -1678.488 -545.376)" gradientUnits="userSpaceOnUse"/><filter id="ah" x="-.139" width="1.278" y="-.181" height="1.362" color-interpolation-filters="sRGB"><feGaussianBlur stdDeviation="1.617"/></filter><linearGradient xlink:href="#j" id="B" gradientUnits="userSpaceOnUse" x1="-9.688" y1="546.743" x2="1124.343" y2="546.743" gradientTransform="translate(-2 6)"/><filter id="C" x="-.014" width="1.027" y="-.007" height="1.015" color-interpolation-filters="sRGB"><feGaussianBlur stdDeviation="2.857"/></filter><filter id="Z" x="-.016" width="1.033" y="-.045" height="1.089" color-interpolation-filters="sRGB"><feGaussianBlur stdDeviation="1.79"/></filter><filter id="W" x="-.016" width="1.033" y="-.045" height="1.089" color-interpolation-filters="sRGB"><feGaussianBlur stdDeviation="1.79"/></filter><filter id="aa" x="-.024" width="1.049" y="-.069" height="1.139" color-interpolation-filters="sRGB"><feGaussianBlur stdDeviation="1.543"/></filter><filter id="K" x="-.009" width="1.019" y="-.01" height="1.019" color-interpolation-filters="sRGB"><feGaussianBlur stdDeviation="3.931"/></filter><radialGradient xlink:href="#g" id="ai" gradientUnits="userSpaceOnUse" gradientTransform="matrix(.86072 0 0 .5348 125.173 213.731)" cx="887.357" cy="460.26" fx="887.357" fy="460.26" r="76.699"/><radialGradient xlink:href="#h" id="aj" gradientUnits="userSpaceOnUse" cx="888.206" cy="454.905" fx="888.206" fy="454.905" r="36.893"/><radialGradient xlink:href="#i" id="ak" gradientUnits="userSpaceOnUse" gradientTransform="matrix(2.88194 0 0 2.2127 -1678.488 -545.376)" cx="887.705" cy="449.515" fx="887.705" fy="449.515" r="4.845"/><linearGradient xlink:href="#j" id="D" gradientUnits="userSpaceOnUse" x1="345.117" y1="540.988" x2="1544.051" y2="540.988" gradientTransform="translate(-433.43 -10.539)"/><filter id="E" x="-.035" width="1.071" y="-.024" height="1.048" color-interpolation-filters="sRGB"><feGaussianBlur stdDeviation="4.838"/></filter><linearGradient xlink:href="#k" id="L" x1="327.916" y1="394.633" x2="1206.042" y2="394.633" gradientUnits="userSpaceOnUse"/><linearGradient xlink:href="#k" id="N" gradientUnits="userSpaceOnUse" x1="327.916" y1="394.633" x2="1206.042" y2="394.633"/><linearGradient xlink:href="#k" id="O" gradientUnits="userSpaceOnUse" x1="327.916" y1="394.633" x2="1206.042" y2="394.633"/><linearGradient xlink:href="#k" id="P" gradientUnits="userSpaceOnUse" x1="327.916" y1="394.633" x2="1206.042" y2="394.633"/><linearGradient xlink:href="#k" id="Q" gradientUnits="userSpaceOnUse" x1="327.916" y1="394.633" x2="1206.042" y2="394.633"/><linearGradient xlink:href="#k" id="R" gradientUnits="userSpaceOnUse" x1="327.916" y1="394.633" x2="1206.042" y2="394.633"/><linearGradient xlink:href="#k" id="S" gradientUnits="userSpaceOnUse" x1="327.916" y1="394.633" x2="1206.042" y2="394.633"/><linearGradient xlink:href="#k" id="T" gradientUnits="userSpaceOnUse" x1="327.916" y1="394.633" x2="1206.042" y2="394.633"/><filter id="M" x="-.012" width="1.024" y="-.012" height="1.024" color-interpolation-filters="sRGB"><feGaussianBlur stdDeviation="4.296"/></filter><linearGradient xlink:href="#j" id="F" x1="321.734" y1="462.796" x2="388.202" y2="462.796" gradientUnits="userSpaceOnUse"/><linearGradient xlink:href="#j" id="H" x1="372.645" y1="642.755" x2="427.8" y2="642.755" gradientUnits="userSpaceOnUse"/><filter id="I" x="-.16" width="1.319" y="-.16" height="1.32" color-interpolation-filters="sRGB"><feGaussianBlur stdDeviation="1.531"/></filter><filter id="G" x="-.106" width="1.213" y="-.08" height="1.16" color-interpolation-filters="sRGB"><feGaussianBlur stdDeviation="2.087"/></filter><filter id="q" x="-.01" width="1.02" y="-.015" height="1.029" color-interpolation-filters="sRGB"><feGaussianBlur stdDeviation="4.097"/></filter><filter id="v" x="-.01" width="1.02" y="-.015" height="1.029" color-interpolation-filters="sRGB"><feGaussianBlur stdDeviation="3.172"/></filter><linearGradient xlink:href="#l" id="r" x1="493.195" y1="898.346" x2="919.536" y2="898.346" gradientUnits="userSpaceOnUse"/><linearGradient xlink:href="#m" id="x" x1="650.931" y1="889.533" x2="1033.893" y2="889.533" gradientUnits="userSpaceOnUse"/><filter id="y" x="-.025" width="1.05" y="-.023" height="1.046" color-interpolation-filters="sRGB"><feGaussianBlur stdDeviation="3.97"/></filter><linearGradient xlink:href="#l" id="s" gradientUnits="userSpaceOnUse" x1="455.024" y1="898.346" x2="571.678" y2="898.346" gradientTransform="translate(-18 38)"/><filter id="A" x="-.013" width="1.027" y="-.011" height="1.022" color-interpolation-filters="sRGB"><feGaussianBlur stdDeviation="4.502"/></filter><linearGradient xlink:href="#n" id="u" gradientUnits="userSpaceOnUse" x1="493.195" y1="898.346" x2="919.536" y2="898.346" gradientTransform="translate(-3.5)"/><filter id="t" x="-.042" width="1.084" y="-.021" height="1.041" color-interpolation-filters="sRGB"><feGaussianBlur stdDeviation="2.511"/></filter><linearGradient xlink:href="#o" id="w" gradientUnits="userSpaceOnUse" gradientTransform="translate(-18 38)" x1="787.707" y1="892.346" x2="374.13" y2="892.346"/></defs><path d="M387.488 656.693c-.841 4.554-1.735 9.034-2.822 13.286-9.79 38.301-14.53 77.92-16.97 117.378-1.457 23.53-.578 55.222-2.587 78.711-2.332 27.267-5.977 52.48-9.556 79.612-3.443 26.097-3.24 71.766-11.657 77.765-20.145 14.36-37.168 30.391-58.386 40.529-16.309 7.791-38.96 10.416-48.922 26.612-9.437 15.342-16.777 38.416-4.656 51.74 214.447 235.74 781.953 257.057 956.008-9.9 9.803-15.037-9.95-35.52-21.213-49.496-23.608-29.292-73.222-32.842-91.924-65.485-18.515-32.316-8.25-74.085-9.9-111.293-1.255-28.256 0-56.569 0-84.853 0-25.456 2.585-51.043 0-76.367-3.08-30.168-4.307-62.238-18.385-89.096-.654-1.246-1.394-2.482-2.079-3.727-2.57 1.414-5.28 2.688-8.09 3.905-3.124 1.353-6.312 2.69-9.376 4.246a54.17 54.17 0 0 0-4.48 2.527 37.172 37.172 0 0 0-4.155 3.033c-.392.333-.754.498-1.092.555a1382.827 1382.827 0 0 1-6.148 24.07c-2.12 7.978-4.326 7.925-6.66 15.885a783.075 783.075 0 0 1-7.436 23.967 698.56 698.56 0 0 1-8.479 24.316 893.144 893.144 0 0 1-9.834 25.471 666.324 666.324 0 0 1-10.127 23.734c-3.458 7.677-7.017-4.855-10.732 2.485a503.86 503.86 0 0 1-24.564 43.142 570.34 570.34 0 0 1-14.467 21.627 694.745 694.745 0 0 1-16.346 22.303 913.257 913.257 0 0 1-18.543 23.467 142.724 142.724 0 0 1-5.57 6.426 147.338 147.338 0 0 1-5.871 6.023 156.73 156.73 0 0 1-12.526 10.898 173.04 173.04 0 0 1-13.359 9.452 193.105 193.105 0 0 1-13.941 8.107 216.007 216.007 0 0 1-14.274 6.865 240.564 240.564 0 0 1-14.353 5.727c-4.771 1.73-9.513 3.29-14.186 4.693a288.685 288.685 0 0 1-13.768 3.76c-4.49 1.11-8.87 2.081-13.095 2.932a321.238 321.238 0 0 1-32.758 4.856c-5.858.559-10.603.841-13.897.983-3.293.143-5.137.145-5.199.145h-.045c-.061 0-1.905 0-5.199-.144a269.977 269.977 0 0 1-13.894-.985 321.28 321.28 0 0 1-32.76-4.855 308.082 308.082 0 0 1-13.096-2.932 288.62 288.62 0 0 1-13.765-3.76 265.48 265.48 0 0 1-14.186-4.693 240.569 240.569 0 0 1-14.354-5.727 216.01 216.01 0 0 1-14.273-6.865 193.107 193.107 0 0 1-13.941-8.107 173.043 173.043 0 0 1-13.36-9.452 156.733 156.733 0 0 1-12.525-10.898 147.345 147.345 0 0 1-5.871-6.023 142.723 142.723 0 0 1-5.57-6.426 913.236 913.236 0 0 1-18.544-23.467 694.872 694.872 0 0 1-16.347-22.303 570.253 570.253 0 0 1-14.465-21.627 503.926 503.926 0 0 1-24.564-43.143c-3.715-7.339-7.274 5.193-10.733-2.484a666.306 666.306 0 0 1-10.127-23.734 893.26 893.26 0 0 1-9.834-25.47 698.79 698.79 0 0 1-8.48-24.323 783.238 783.238 0 0 1-7.438-23.973c-2.335-7.962-4.54-7.91-6.66-15.89s-4.156-15.99-6.15-24.076c-.292-.082-.601-.251-.932-.532a37.173 37.173 0 0 0-4.154-3.033 54.178 54.178 0 0 0-4.48-2.527c-2.575-1.307-5.24-2.43-7.878-3.567z" fill="url(#p)" fill-rule="evenodd" filter="url(#q)"/><g transform="translate(-3.5)" fill="url(#r)" fill-rule="evenodd"><path d="M472.5 1159.814c-26.063-33.53-42.52-69.376-53.207-93.73-9.299-21.193-16.697-37.504-23.26-56.419-8.45-24.36-6.742-17.944-14.225-47.347-4.995-19.624-10.818-49.453-13.394-75.67-2.38-24.236 5.3 11.836 7.965 21.42 8.26 29.71 25.142 81.403 36.242 106.092 11.517 25.615 12.668 26.446 30.187 62.459 13.991 28.763 14.53 28.084 29.979 47.766 21.389 27.251 12.41 13.565 23.991 21.481 22.66 15.486 26.909-.347 10.525 21.671-6.87 9.233-27.74 1.363-34.803-7.723z" fill="url(#s)" filter="url(#t)"/><path d="M452.691 635.6c-19.816.217-36.07 11.706-47.488 30.646a99.886 99.886 0 0 0-18.45 2.227c.753 9.907 4.494 25.209 2.946 41.605-3.066 32.473.395 74.858 9.35 111.596 8.954 36.738 13.551 59.096 29.974 94.806 16.424 35.711 19.672 40.805 31.932 58.575 18.454 26.746 15.901 22.797 31.397 45.758 13.058 14.553 14.348 16.822 29.09 34.292 18.453 21.87 4.343 2.785 25.97 29.018s3.663 6.255 28.969 29.274c24.577 22.355 22.316 14.562 40.908 14.382 1.663.117 3.642.086 5.899.043 4.284.037 7.81.032 10.712-.013 13.519.15 18.506-.205 27.229-.336 1.84.02 3.617.037 5.82.08 6.85.133 12.695.137 18.053.091 10.571.119 18.922-.038 25.91-.277.08-.002.158.002.238 0 .081.002.158-.002.239 0 6.988.239 15.339.396 25.91.278 5.358.045 11.203.04 18.053-.092 2.202-.043 3.979-.06 5.82-.08 8.723.131 13.71.485 27.228.336 2.902.045 6.429.05 10.713.013 2.257.043 4.236.074 5.899-.043 18.592.18 16.33 7.973 40.908-14.382 25.305-23.019 7.342-3.04 28.969-29.274 21.627-26.233 7.517-7.149 25.97-29.018 14.742-17.47 16.032-19.739 29.09-34.293 15.496-22.96 12.943-19.01 31.397-45.757 12.26-17.77 15.508-22.864 31.931-58.575 16.423-35.71 21.02-58.068 29.975-94.806 8.955-36.738 12.415-79.123 9.35-111.596-1.549-16.396 2.193-31.698 2.945-41.605a99.886 99.886 0 0 0-18.45-2.227c-11.416-18.94-27.67-30.43-47.488-30.646-56.947-.624-143.233 91.723-228.15 367.052-9.768 1.813-19.735 3.665-29.795 4.514-.173.012-.34.015-.514.027-.173-.012-.34-.015-.513-.027-10.06-.849-20.027-2.701-29.795-4.514-84.918-275.33-171.204-367.676-228.15-367.052z" transform="translate(3.5)" fill="url(#u)" filter="url(#v)"/><path d="M472.5 1159.814c-26.063-33.53-42.52-69.376-53.207-93.73-9.299-21.193-16.697-37.504-23.26-56.419-8.45-24.36-6.742-17.944-14.225-47.347-4.995-19.624-10.818-49.453-13.394-75.67-2.38-24.236 5.3 11.836 7.965 21.42 8.26 29.71 25.142 81.403 36.242 106.092 11.517 25.615 12.668 26.446 30.187 62.459 13.991 28.763 14.53 28.084 29.979 47.766 21.389 27.251 12.41 13.565 23.991 21.481 22.66 15.486 26.909-.347 10.525 21.671-6.87 9.233-27.74 1.363-34.803-7.723z" transform="matrix(-1 0 0 1 1429.752 0)" fill="url(#w)" filter="url(#t)"/></g><path d="M437.446 701.061c2.076 5.624 5.84 117.168 24.754 150.826 7.638 13.592 9.03 17.651 29.522 50.338 13.427 21.418 31.39 40.685 43.09 55.612 17.072 21.777 21.668 25.696 56.602 54.81 25.64 21.37 47.826 37.81 73.753 50.817 23.93 12.004 38.036 18.568 68.38 24.243 0 0 26.86 4.274 33.927 4.914 13.342 1.208 16.438 1.571 35.17.147 23.724-1.804 21.517-4.022 34.227-7.06 16.856-4.03 21.446-7.956 38.74-21.122 17.295-13.166 31.33-33.144 51.714-69.838 18.197-32.757 44.475-91.518 56.281-182.59 19.617-151.313-11.764-53.92-21.25-82.38-2.53-7.59-20.277 22.633-28.122 24.2-57.002 11.388 43.583 41.753 13.29 91.363-32.59 53.37-116.674 140.007-125.159 140.007s-107.028 13.056-159.099 17.956c-5.565.523-194.368-287.189-227.512-324.047-3.195-3.554 1.22 20.526 1.692 21.804z" fill="url(#x)" fill-rule="evenodd" filter="url(#y)"/><path d="M577.353 29.764c-18.33.026-33.11 5.394-61.015 13.111-25.588 7.076-44.54 11.423-75.93 48.932-69.896 83.52-44.713 238.011-44.713 238.011.25 57.406-15.406 90.011-19.943 131.29-.247-.76-.508-1.53-.752-2.288-4.88-15.186-14.02-28.656-21-43-5.349-10.992-7.862-18.168-18-25-4.156-2.8-8.52-7.247-13-5-6.033 3.027-8.52 6.723-11 13-6.222 15.75-4.056 33.092-5 50-1.117 20.014-4.298 37.539.5 57 6.213 25.202 23.313 51.164 33.281 75.588 9.633 23.602 11.943 45.766 28.719 64.412 8.49 9.436 23.979 11.082 34.5 20 .33.28-5.724 18.128.932.532 7.976 32.345 16.61 63.479 28.728 96.261 11.795 31.907 19.652 58.953 33.825 82.771 17.215 28.932 41.905 54.052 70.788 89.458 57.688 70.714 109.201 80.867 172.795 80.867h.045c63.595 0 115.11-10.153 172.797-80.867 27.848-34.137 54.193-60.572 71.045-88.354 15.017-24.755 21.26-50.58 33.568-83.875 12.116-32.774 20.748-63.9 28.723-96.238.338-.057.7-.222 1.092-.555 10.52-8.918 26.01-10.564 34.5-20 16.776-18.646 19.084-40.81 28.717-64.412 9.968-24.424 27.07-50.386 33.283-75.588 4.798-19.461 1.617-36.986.5-57-.944-16.908 1.221-34.25-5-50-2.48-6.277-4.967-9.973-11-13-4.48-2.247-8.844 2.2-13 5-10.138 6.832-12.651 14.008-18 25-6.98 14.344-16.12 27.814-21 43-.282.877-.584 1.766-.87 2.645-4.485-41.448-20.233-74.076-19.982-131.647 0 0 25.184-154.49-44.713-238.011-31.39-37.51-50.342-41.856-75.93-48.932-35.719-9.878-49.932-15.907-77.615-11.81-55.67 8.237-90.271-3.515-117.138-3.514-26.867 0-61.466 11.75-117.137 3.513-6.056-.896-11.467-1.308-16.6-1.3z" fill="url(#z)" fill-rule="evenodd" filter="url(#A)"/><g fill-rule="evenodd"><path d="M772.357 1003.174c.157.576 1.12-.236 1.706-.381 4.49-1.11 9.095-2.357 13.767-3.76a265.448 265.448 0 0 0 14.186-4.693c4.77-1.731 9.568-3.634 14.353-5.727a216.037 216.037 0 0 0 14.274-6.865 193.12 193.12 0 0 0 13.941-8.107 173.048 173.048 0 0 0 13.36-9.451 156.73 156.73 0 0 0 12.525-10.899 147.376 147.376 0 0 0 5.87-6.023 142.77 142.77 0 0 0 5.571-6.426 913.17 913.17 0 0 0 18.543-23.467c5.797-7.602 11.228-11.008 16.346-18.303a570.39 570.39 0 0 0 14.467-21.627c4.544-7.148 10.828-14.264 14.904-21.427 4.076-7.164 9.945-14.376 13.66-21.715 3.715-7.34 3.274-8.808 6.733-16.485a666.351 666.351 0 0 0 10.126-23.734 892.97 892.97 0 0 0 9.834-25.47 698.8 698.8 0 0 0 8.479-24.317 783.342 783.342 0 0 0 7.436-23.967 969.572 969.572 0 0 0 6.66-23.885c2.12-7.977 3.856-16.065 6.148-24.07.094-.33.7-.222 1.092-.555a37.175 37.175 0 0 1 4.154-3.033 54.17 54.17 0 0 1 4.48-2.527c3.065-1.556 6.253-2.893 9.378-4.246 3.124-1.353 6.185-2.721 8.996-4.342a36.372 36.372 0 0 0 4.004-2.649 25.846 25.846 0 0 0 3.488-3.203 71.694 71.694 0 0 0 5.656-7.152 77.692 77.692 0 0 0 4.553-7.459 96.56 96.56 0 0 0 3.709-7.74c1.124-2.624 2.15-5.29 3.119-7.996 1.94-5.411 3.655-10.978 5.488-16.666 1.833-5.689 3.784-11.498 6.192-17.399 2.492-6.106 5.429-12.308 8.53-18.57 3.103-6.262 6.37-12.585 9.518-18.932 3.15-6.347 6.182-12.718 8.815-19.078a160.391 160.391 0 0 0 3.615-9.525 113.577 113.577 0 0 0 2.805-9.483 83.966 83.966 0 0 0 1.445-7.216c.37-2.381.635-4.74.815-7.086.359-4.693.376-9.333.209-13.99-.336-9.316-1.41-18.701-1.97-28.708-.471-8.454-.166-17.016-.52-25.433-.178-4.21-.519-8.382-1.206-12.487a65.54 65.54 0 0 0-1.31-6.103 54.57 54.57 0 0 0-1.963-5.977c-.62-1.569-1.24-2.977-1.916-4.254-.676-1.276-1.41-2.42-2.252-3.464a17.521 17.521 0 0 0-2.916-2.856c-1.12-.87-2.408-1.67-3.916-2.426a5.698 5.698 0 0 0-1.674-.545 5.773 5.773 0 0 0-1.662-.015c-1.104.144-2.2.577-3.285 1.168-2.17 1.18-4.301 2.992-6.38 4.392-2.534 1.708-4.592 3.437-6.337 5.243-1.745 1.805-3.175 3.686-4.457 5.697-1.282 2.01-2.416 4.153-3.563 6.478-1.146 2.326-2.305 4.834-3.642 7.582-3.49 7.172-7.52 14.125-11.287 21.184-1.884 3.53-3.701 7.084-5.354 10.707-1.652 3.623-3.139 7.313-4.36 11.11-.28.876-.69 3.55-.868 2.644-1.006-5.113-1.297-10.224-2.156-15.195-.86-4.972-1.842-9.87-2.893-14.764-2.103-9.787-4.486-19.551-6.719-29.818a464.596 464.596 0 0 1-3.185-15.844 328.608 328.608 0 0 1-2.645-16.996 293.322 293.322 0 0 1-1.781-18.543 299.448 299.448 0 0 1-.604-20.487c.03-6.831.393-1.788.946-5.082.552-3.293 1.262-8.092 1.896-14.111.635-6.02 1.195-13.26 1.442-21.437.123-4.089.169-8.411.107-12.932-.062-4.521-.23-9.24-.535-14.123a278.41 278.41 0 0 0-1.356-15.104 263.809 263.809 0 0 0-2.35-15.867 247.827 247.827 0 0 0-3.52-16.42c-1.39-5.542-3-11.142-4.868-16.762a217.363 217.363 0 0 0-6.392-16.886 205.276 205.276 0 0 0-8.094-16.8c-3-5.56-6.312-11.073-9.967-16.5a192.836 192.836 0 0 0-12.022-15.987c-3.923-4.689-7.654-8.86-11.226-12.582-3.572-3.723-6.986-6.997-10.281-9.893-3.296-2.896-6.472-5.414-9.565-7.625a98.485 98.485 0 0 0-9.068-5.78 94.555 94.555 0 0 0-8.797-4.35 114.607 114.607 0 0 0-8.748-3.347c-1.803-.61-9.6-10.238-8.436-8.717 8.37 10.939 10.996-6.111-13.401-16.584-26.794-11.5-78.981-9.746-91.783-2.542-1.232.693-62.136 41.193-101.448 41.193-29.065 0-76.514-33.587-106.957-46.714-19.614-8.457-91.857 11.186-130.427 32.327-56.254 30.835-80.815 113.491-71.513 120.432 4.028 3.005 98.295-67.08 114.065-47.127 28.12 35.58 99.162 96.721 99.162 96.721 11.148-8.857-8.386-41.136-16.987-79.817-7.124-32.042-1.078-67.723 4.509-70.21 29.381-13.085 82.337 30.252 99.467 30.252 54.22 0 109.672-51.879 127.38-41.15 16.092 9.75 28.193 49.411 27.948 60.058-.576 25.05-10.075 81.233-12.21 96.112-.913 6.358 73.434-48.069 86.885-35.476 13.784 12.905 3.124 53.396 10.71 68.753 8.357 16.916 9.263 25.585 9.242 31.755-.016 4.568-12.004 10.133-16.67 11.344-17.511 4.544-10.284 1.904-46.114 15.21-38.839 14.424-20.987 6.651-56.52 18.177-20.817 6.753-37.151 10.116-45.974 13.883-33.96 14.497-18.8 7.504-30.01 14.794-10.295 6.694-16.224 12.406-21.192 16.51-12.909 10.663 10.7 24.183 14.305 40.533 2.64 11.97-13.288 21.715-14.142 33.942-3.674 52.55-7.62 33.348 2.126 106.133.91 6.789 8.725 63.713 6.373 75.056-.723 3.487-10.476 6.588-18.63 7.402-9.506.949-10.783.711-15.754.756-7.59.07-19.813-5.445-27.37-4.742-11.592 1.079-11.994-1.075-21.062 6.227-1.625 1.308-6.751 4.494-12.197.693 0 0-16.634-41.728 13.074-48.79 17.554-4.174-4.242.706 13.25.576 7.428-.056-34.844 6.95-37.692 7.4-11.162 1.767-6.129 31.594-16.026 47.548-8.383 13.513-13.485 26.243-16.103 37.994-.925 4.15 27.095-26.44 28.34-34.035 3.819-23.321 12.027-3.834 22.075 9.584 7.765 10.37 9.87 18.134 21.613 25.786 10.722 6.986 27.517-2.164 39.598 2.056 8.822 3.082 13.421 18.964 22.627 20.57 15.388 2.687 27.101 4.378 41.67-1.257 14.314-5.537 23.279-20.594 33.613-31.942 8.989-9.87 16.06-15.048 18.37-28.197 3.422-19.492-7.913-29.691-16.735-45.968-7.294-13.46-11.445-32.972-16.778-48.442-9.58-27.793-16.589-57.315-12.54-81.852 3.812-23.11 36.789-18.198 47.86-26.093 10.132-7.227-3.945-21.983 7.778-26.162 26.213-9.346 77.27-18.94 95.46 2.121 13.78 15.955-9.869 39.465-28.335 55.275-16.367 14.013 54.981-3.35 68.639 13.314 13.748 16.776 2.958 43.81-1.414 65.055-4.817 23.408-15.38 42.832-21.37 65.967-7.737 29.887-16.206 70.931-26.814 99.924-5.032 13.752-25.828 26.35-37.041 35.77-.833.7-24.108-4.462-24.108-4.462-5.053-1.354-22.165 1.631-37.714 1.542-39.474-.226-65.377-.76-108.257 2.248-18.22 1.278-33.868-4.49-34.63-4.25-7.017 2.197 102.847 3.153 154.402 4.867 23.8.792 25.316 2.883 23.08 4.888-4.024 3.608-23.016 5.048-34.876 5.617-18.418.885-35.993 1.329-71.817 1.131-49.88-.275-84.284 1.407-124.903-2.202-11.912-1.058-35.134-2.857-40.395-6.311-1.95-1.28 21.388-4.445 18.52-5.285-6.825-1.999-28.147 2.577-34.762 1.692-11.482-1.536-12.832-7.946-13.748-6.411-5.001 8.388-6.475 19.288.346 21.376 6.507 1.992 28.495-2.157 75.104-.493 38.776 1.384 106.034-2.23 158.722-.326 32.265 1.167 27.594 3.368 52.957-.349 2.735-.4 1.507-.47 7.581-2.309 0 0 9.48-13.684 31.593-.32 22.723 13.731-19.148 66.141-34.906 87.509-4.035 5.471-10.982 8.095-16.97 11.314-8.56 4.602-17.173 11.942-26.871 11.313-6.536-.424-14.879-3.693-16.971-9.899-4.727-14.02 11.8-27.152 16.97-41.013 2.606-6.984 12.04-15.656 7.073-21.213-15.095-16.89-43.847 14.32-66.469 13.142-38.442-2.002-38.442-2.722-92.066-2.242-11.205.1-37.376-21.833-45.113-13.728-10.05 10.526 11.263 26.906 18.384 39.597 4.159 7.412 8.23 20.111 16.143 23.213 11.284 4.424 21.627-1.429 33.355-4.484 15.164-3.95 24.586-3.729 40.256-3.729 16.691 0 21.795-.518 31.283 4.557 11.713 6.265 22.3 11.666 37.356 18.385 14.075 6.28 19.712 13.07 18.385 28.425-1.7 19.67-28.49 30.173-32.528 49.498-.403 1.932-1.198 4.177-.63 6.27z" fill="url(#B)" filter="url(#C)"/><path transform="matrix(.69334 0 0 .34753 234.107 163.765)" d="M340.01 553c-2.883 2.468-107.423 65.566-73.516 56.64 7.624-2.006-21.424 49.598-7.83 47.467 19.827-3.108 69.97-74.616 93.186-25.176 10.05 21.402 14.488 49.482 7.307 68.46-14.84 39.213-37.493 85.002-30.504 93.53 2.143 2.614 18.67-3.752 40.728-19.379 12.978-9.194 11.284-20.835 26.289-20.835 9.104 0-7.107 33.415 38.97 32.278 39.821-.982-7.802 134.37 7.946 175.187 8.754 22.69-61.416 100.541-54.07 107.481 7.875 7.439 58.59-18.675 109.655-55.409 42.561-30.616 55.41-107.316 78.933-119.91 9.406-5.037 36.098 58.655 38.033 51.721 4.262-15.27-6.288-61.959-5.494-90.69.702-25.44 12.199-32.891 22.831-49.431 5.676-8.83 9.895-15.614 14.879-23.578 7.88-12.593 25.553-29.36 24.882-53.86-.465-16.991-16.839 16.998-29.002 12.37-12.09-4.6-14.395-60.406-22.616-70.67-32.199-40.2-85.336-72.877-120.367-92.622-82.462-46.479-143.322-39.767-160.24-23.575z" fill="url(#D)" filter="url(#E)"/><path d="M331.633 435.926c-18.966 3.45-22.245 40.3-5.303 49.498 5.859 3.18 3.2-17.6 9.546-15.557 3.81 1.228 11.42 31.418 24.041 28.285 5.94-1.475-.51-10.212-1.414-16.264-1.306-8.753-9.688-16.489-12.315-25.09-3.604-11.799-2.613-23.044-14.555-20.872z" fill="url(#F)" filter="url(#G)"/><path d="M368.403 639.22c-.13-5.621 2.853-6.532 25.455-7.425 7.377-.292 13.583 24.076 7.779 28.638-6.23 4.895-33.052-13.292-33.234-21.214z" fill="url(#H)" filter="url(#I)"/></g><path d="M719.293-147.348c-138.071.182-258.413 19.355-276.645 23.953C361.62-102.959 304.012.007 257.387 22.27c-20.46 9.768 4.562 45.211 4.242 67.88-.22 15.62 9.347 38.967-4.242 46.67-12.29 6.967-27.693-27.845-38.184-18.384-9.302 8.388 11.6 22.88 12.729 35.355 1.808 19.99-6.226 39.664-9.9 59.397-2.996 16.087-10.28 31.724-9.9 48.083.578 24.804 6.649 50.267 18.386 72.125 15.945 29.698 52.874 63.85 69.88 92.954 3.659 6.26 6.546 12.887 8.989 19.716.189-10.026.927-23.915 4.613-33.246 2.48-6.277 2.967-11.973 9-15 4.48-2.247 8.844-1.8 13 1 10.138 6.832 12.651 26.008 18 37 6.98 14.344 18.12 31.814 23 47 .244.758.505 1.528.752 2.287 4.537-41.278 35.365-97.883 35.115-155.289 0 0-45.334-129.018 48.754-183.87 18.714-10.908 30.55 25.96 60.195 65.847 22.323 30.036 66.99 67.296 63.818 56.342-14.52-50.144-49.239-127.637-21.008-157.361 3.534-3.722 48.727-39.193 94.38-.114 42.754 36.597 30.874 20.931 46.427 20.93 26.867-.002 71.483-47.96 127.038-38.971 21.64 3.501 19.858 19.497 18.663 61.123-1.076 37.47-12.452 72.048-8.93 98.837 1.825 13.878 39.5-15.17 71.292-53.607 28.502-34.46 50.61-79.242 65.449-61.51 69.896 83.52 30.37 192.354 30.37 192.354-.251 57.571 30.668 114.2 35.154 155.647.285-.879.587-1.768.869-2.645 4.88-15.186 16.02-32.656 23-47 5.349-10.992 7.862-26.168 18-33 4.156-2.8 8.52-11.247 13-9 6.033 3.027 4.52 18.723 7 25 6.221 15.75 2.9 32.213 9 38 4.57 4.336-3.207 7.874-.33 7.813 4.564-.097 6.378-.686 9.29-12.633 2.165-8.876 1.556-19.197 7.073-26.479 8.935-11.792 28.183-31.726 38.184-42.628 19.098-20.82 32.74-48.404 36.77-76.368 4.155-28.841-6.089-58.263-14.143-86.267-7.067-24.569-21.531-33.433-17.698-58.71 2.308-15.216 23.477-33.09 17.698-47.355-6.94-17.128-5.698 23.356-31.155-17.658-20.235-32.6 7.368-69.838-12.685-102.55-69.95-114.11-262.412-141.552-429.049-141.333zm-371.37 743.12c-.01.108-.016.216-.027.324-1.761 17.43-16.074 37.336-21.212 54.084-4.638 15.116-8.757 30.86-8.487 46.67.38 22.187 8.973 43.472 14.143 65.052 4.767 19.904-2.186 49.194 15.556 59.397 7.635 4.39 19.367-.707 25.456-7.07 30.435-31.81-4.394-106.84 29.699-134.694a336.91 336.91 0 0 1 5.595-4.463 1516.047 1516.047 0 0 1-3.714-14.72c-.292-.082-.601-.251-.932-.532-10.521-8.918-26.01-10.564-34.5-20-11.845-13.165-16.485-28.108-21.576-44.049zm722.6 11.83c-4.001 11.515-8.817 22.362-17.685 32.218-8.49 9.436-23.98 11.082-34.5 20-.392.333-.754.498-1.092.555a1483.971 1483.971 0 0 1-4.26 16.814c26.789 41.208 8.698 140.83 56.158 138.454 33.508-1.678 28.518-61.644 33.942-94.752 3.963-24.195 7.278-50.614-1.414-73.54-5.363-14.145-25.214-26.483-31.149-39.75z" fill="url(#J)" fill-rule="evenodd" filter="url(#K)"/><g transform="translate(0 20)" fill="url(#L)" filter="url(#M)" fill-rule="evenodd"><path d="M1044.043 454.311c18.792 5.93 19.72-41.78 30.406-58.336 6.866-10.637 20.222-24.193 32.88-24.395 12.893-.207 7.113 30.924 19.8 33.234 24.915 4.536 46.509-25.575 59.396-47.377 15.578-26.352 16.439-59.91 15.556-90.51-.962-33.375-8.42-67.363-22.627-97.58-5.295-11.263-17.848-11.349-14.496-23.335 3.82-13.657 22.502-10.931 31.467-21.92 6.957-8.527 14.382-25.82 5.657-32.527-10.703-8.226-16.884 7.566-30.053 4.596-7.183-1.62-11.266-5.595-14.142-12.374-6.851-16.15-12.334-27.004-12.374-44.548-.032-13.743 13.397-30.76 4.243-41.012-31.714-35.515-108.575-34.479-142.836-1.414-13.233 12.771-3.26 36.856-1.414 55.154 2.526 25.03 35.98 57.062 16.97 73.54-11.841 10.263-30.392-8.928-43.84-16.971-7.46-4.462-15.666-9.324-19.8-16.97-12.205-22.582 1.431-53.335-9.899-76.368-2.942-5.982-7.73-15.967-14.142-14.142-23.755 6.757-10.797 48.21-16.97 72.124-7.834 30.346-22.212 50.134-33.942 79.196-13.419 33.25-40.942 70.891-38.537 78.49 2.301 7.269 25.55-15.583 43.487-35.003 14.91-16.141 39.037-33.17 48.437-53.033 9.196-19.433 28.278-55.454 49.153-50.015 22.648 5.901 6.474 39.857 20.144 58.854 9.93 13.802 10.702 23.907 18.738 38.891 12.324 22.981 15.542 55.63 6.01 79.903-15.961 40.646 7.915 77.016 10.253 123.037.802 15.779-12.592 56.057 2.475 60.811z" fill="url(#N)"/><path d="M832.972 60.453c3.966-24.177-12.304-62.356-36.77-63.64-19.209-1.008-16.285 39.037-33.94 46.669-19.502 8.43-36.466 10.046-51.17 21.213-22.998 17.464-27.779 22.626-11.5 33.897 25.332 17.54 55.606-7.669 82.024-23.527 13.46-8.08 48.814.879 51.356-14.612z" fill="url(#O)"/><path d="M634.982 8.127c29.244 8.963 21.137 58.042 38.184 83.438 5.762 8.584 38.142.33 32.713 9.128-13.942 22.594-41.26-15.208-63.868-29.128-9.37-5.77-43.489 6.507-46.627-4.041-3.824-12.852-6.504-33.535 1.071-44.598 7.17-10.474 26.391-18.519 38.527-14.8z" fill="url(#P)"/><path d="M568.514 61.867c19.469 10.835-16.467 26.786-18.571 48.968-2.144 22.604 6.194 59.657 10.843 81.882 4.06 19.407 39.548 44.486 23.284 55.826-21.644 15.091-43.656-34.476-52.326-59.397-5.894-16.942-7.778-35.306-8.171-53.24-.322-14.678-11.55-34.356-5.743-47.84 6.378-14.81 36.595-34.04 50.684-26.2z" fill="url(#Q)"/><path d="M416.132 155.912c7.185 6.22-17.4 30.522-19.482 53.117-1.678 18.216.822 37.178 1.214 46.956.896 22.346 14.495 44.278 12.888 61.712-1.91 20.715-5.487 21.448-8.481 45.342-1.876 14.965-8.35 31.731-11.929 48.252-3.32 15.326-3.313 31-15.575 31-18.01 0-21.884-53.863-34.971-83.667-4.056-9.238 1.036-19.082-1.799-28.764-7.976-27.238 13.93-57.312 7.071-84.853-1.896-7.613-14.126-20.252-11.314-27.577 7.707-20.07 66.125-75.59 82.378-61.518z" fill="url(#R)"/><path d="M344.84 709.29c-8.636 16.291 4.778 40.294 12.243 57.154 4.725 10.672-3.654 31.254 7.541 27.956 19.779-5.826 11.92-40.28 13.814-60.811.562-6.088 1.297-25.39 3.234-42.513 1.124-9.932 13.369-33.554 13.81-41.55.559-10.106-27.667-13.614-31.544-15.864-5.533-3.21 2.125 20.129-6.79 37.659-12.272 24.126-8.184 30.19-12.308 37.969z" fill="url(#S)"/><path d="M1078.844 612.655c-11.39-14.125-25.993 14.628-49.34 35.025-13.19 11.522 2.273 22.511 4.399 50.438 2.112 27.749 3.228 88.113 30.328 94.439 21.36 4.985 21.592-17.92 25.613-39.483 5.532-29.668 12.07-57.879 12.4-86.353.41-35.506-1.11-26.424-23.4-54.066z" fill="url(#T)"/></g><g fill-rule="evenodd"><path d="M753.602 428.635c-3.236-4.85 3.026-26.241 20.5-34.5 34.25-16.188 76.59-26.034 113-38 20-6.573 44.027-25.071 60-22 10.557 2.03 25.799 10.278 37 21 9.398 8.995 26.92 23.88 30 32 1.556 4.099-2.212 6.934-4 5 0 0-1.716-.735-5-4-9-8.95-21.036-14.76-33-19-7.954-2.819-16.82-6.076-25-4-10.598 2.69-21.9 8.81-32 13-11.8 4.896-19.636 8.783-32 12-27.076 7.045-53.373 15.721-78 29-7.162 3.862-14.973 6.662-23 8-14.363 2.394-26.371 4.689-28.5 1.5z" fill="url(#U)" stroke="url(#V)" filter="url(#W)"/><path d="M668.958 428.635c3.237-4.85-3.026-26.241-20.5-34.5-34.25-16.188-76.59-26.034-113-38-20-6.573-44.027-25.071-60-22-10.557 2.03-25.798 10.278-37 21-9.397 8.995-26.919 23.88-30 32-1.555 4.099 2.212 6.934 4 5 0 0 1.716-.735 5-4 9-8.95 21.036-14.76 33-19 7.955-2.819 16.82-6.076 25-4 10.598 2.69 21.9 8.81 32 13 11.8 4.896 19.636 8.783 32 12 27.077 7.045 53.374 15.721 78 29 7.163 3.862 14.973 6.662 23 8 14.364 2.394 26.372 4.689 28.5 1.5z" fill="url(#X)" stroke="url(#Y)" filter="url(#Z)"/></g><g transform="translate(-.453)" filter="url(#aa)"><path d="M814.16 481.741c-5.583-5.699 6.407-24.173 16.152-36.426 2.715-3.414 7.919-9.638 12.253-10.132 27.667-3.15 64.137-1.527 98.177-.232 10.027.381 19.745 1.715 22.89 6 2.905 3.954 1.072 10.661-1.08 18.87-1.59 6.058-3.215 11.144-10.365 15.677-5.711 3.622-8.134 6.323-14.738 7.779-8.523 1.879-11.436 2.923-20.163 3.06-12.963.204-25.928-.166-38.89-.353-11.905-.172-19.829.054-31.71-.707-10.884-.698-29.839-.792-32.527-3.536z" opacity=".97" fill="url(#ab)" fill-rule="evenodd" filter="url(#ac)"/><path d="M881.414 433.744c-7.187-.01-14.175.108-20.885.387a34.648 34.648 0 0 0-6.97 20.775 34.648 34.648 0 0 0 20.158 31.43c1.047.01 1.989.013 3.1.03 8.324.12 16.649.302 24.974.372a34.648 34.648 0 0 0 21.063-31.832 34.648 34.648 0 0 0-6.711-20.427c-11.732-.404-23.454-.718-34.729-.735z" style="isolation:auto;mix-blend-mode:normal" color="#000" overflow="visible" opacity=".99" fill="url(#ad)" filter="url(#ae)" enable-background="accumulate"/><circle r="10.762" cy="454.786" cx="888.535" style="isolation:auto;mix-blend-mode:normal" color="#000" overflow="visible" stroke="#000" stroke-width=".697" filter="url(#af)" enable-background="accumulate"/><ellipse ry="10.72" rx="13.962" cy="449.265" cx="879.822" style="isolation:auto;mix-blend-mode:normal" color="#000" overflow="visible" opacity=".99" fill="url(#ag)" filter="url(#ah)" enable-background="accumulate"/></g><g transform="matrix(-1 0 0 1 1420.919 0)" filter="url(#aa)"><path d="M814.16 481.741c-5.583-5.699 6.407-24.173 16.152-36.426 2.715-3.414 7.919-9.638 12.253-10.132 27.667-3.15 64.137-1.527 98.177-.232 10.027.381 19.745 1.715 22.89 6 2.905 3.954 1.072 10.661-1.08 18.87-1.59 6.058-3.215 11.144-10.365 15.677-5.711 3.622-8.134 6.323-14.738 7.779-8.523 1.879-11.436 2.923-20.163 3.06-12.963.204-25.928-.166-38.89-.353-11.905-.172-19.829.054-31.71-.707-10.884-.698-29.839-.792-32.527-3.536z" opacity=".97" fill="url(#ai)" fill-rule="evenodd" filter="url(#ac)"/><path style="isolation:auto;mix-blend-mode:normal" d="M881.414 433.744c-7.187-.01-14.175.108-20.885.387a34.648 34.648 0 0 0-6.97 20.775 34.648 34.648 0 0 0 20.158 31.43c1.047.01 1.989.013 3.1.03 8.324.12 16.649.302 24.974.372a34.648 34.648 0 0 0 21.063-31.832 34.648 34.648 0 0 0-6.711-20.427c-11.732-.404-23.454-.718-34.729-.735z" color="#000" overflow="visible" opacity=".99" fill="url(#aj)" filter="url(#ae)" enable-background="accumulate"/><circle style="isolation:auto;mix-blend-mode:normal" cx="888.535" cy="454.786" r="10.762" color="#000" overflow="visible" stroke="#000" stroke-width=".697" filter="url(#af)" enable-background="accumulate"/><ellipse style="isolation:auto;mix-blend-mode:normal" cx="879.822" cy="449.265" rx="13.962" ry="10.72" color="#000" overflow="visible" opacity=".99" fill="url(#ak)" filter="url(#ah)" enable-background="accumulate"/></g></svg>